<svg width="29" height="30" viewBox="0 0 29 30" fill="none" xmlns="http://www.w3.org/2000/svg">
<g id="ph:ruler">
<path id="Vector" d="M26.6519 8.80981L20.7277 2.88674C20.5606 2.71965 20.3623 2.5871 20.144 2.49667C19.9257 2.40624 19.6918 2.3597 19.4555 2.3597C19.2192 2.3597 18.9853 2.40624 18.767 2.49667C18.5487 2.5871 18.3504 2.71965 18.1833 2.88674L2.51887 18.55C2.35178 18.7171 2.21923 18.9154 2.1288 19.1337C2.03837 19.352 1.99182 19.586 1.99182 19.8223C1.99182 20.0585 2.03837 20.2925 2.1288 20.5108C2.21923 20.7291 2.35178 20.9274 2.51887 21.0945L8.44307 27.0175C8.61012 27.1846 8.80845 27.3172 9.02674 27.4076C9.24503 27.498 9.47899 27.5446 9.71527 27.5446C9.95154 27.5446 10.1855 27.498 10.4038 27.4076C10.6221 27.3172 10.8204 27.1846 10.9875 27.0175L26.6519 11.3542C26.819 11.1872 26.9515 10.9888 27.042 10.7705C27.1324 10.5523 27.1789 10.3183 27.1789 10.082C27.1789 9.84574 27.1324 9.61177 27.042 9.39349C26.9515 9.1752 26.819 8.97687 26.6519 8.80981ZM9.7147 25.7459L3.79163 19.8217L7.38955 16.2238L10.3511 19.1864C10.4347 19.27 10.5339 19.3363 10.6431 19.3815C10.7522 19.4268 10.8693 19.45 10.9875 19.45C11.1057 19.45 11.2227 19.4268 11.3319 19.3815C11.4411 19.3363 11.5403 19.27 11.6238 19.1864C11.7074 19.1029 11.7737 19.0036 11.8189 18.8945C11.8642 18.7853 11.8874 18.6682 11.8874 18.55C11.8874 18.4319 11.8642 18.3148 11.8189 18.2056C11.7737 18.0965 11.7074 17.9972 11.6238 17.9137L8.66119 14.9521L10.9875 12.6259L13.949 15.5885C14.1178 15.7573 14.3467 15.8521 14.5854 15.8521C14.8241 15.8521 15.053 15.7573 15.2218 15.5885C15.3905 15.4197 15.4854 15.1908 15.4854 14.9521C15.4854 14.7134 15.3905 14.4845 15.2218 14.3158L12.2591 11.3542L14.5854 9.02794L17.5469 11.9906C17.6305 12.0742 17.7297 12.1405 17.8389 12.1857C17.9481 12.2309 18.0651 12.2542 18.1833 12.2542C18.3015 12.2542 18.4185 12.2309 18.5277 12.1857C18.6369 12.1405 18.7361 12.0742 18.8197 11.9906C18.9033 11.907 18.9695 11.8078 19.0148 11.6986C19.06 11.5894 19.0833 11.4724 19.0833 11.3542C19.0833 11.236 19.06 11.119 19.0148 11.0098C18.9695 10.9006 18.9033 10.8014 18.8197 10.7178L15.857 7.7563L19.4549 4.15838L25.3791 10.0826L9.7147 25.7459Z" fill="black"/>
</g>
</svg>
