<svg width="30" height="30" viewBox="0 0 30 30" fill="none" xmlns="http://www.w3.org/2000/svg">
<path d="M12.5647 9.33486C12.8032 9.33486 13.032 9.2401 13.2007 9.07141C13.3694 8.90273 13.4641 8.67394 13.4641 8.43538C13.4641 8.19683 13.3694 7.96804 13.2007 7.79936C13.032 7.63067 12.8032 7.5359 12.5647 7.5359C12.3261 7.5359 12.0973 7.63067 11.9286 7.79936C11.7599 7.96804 11.6652 8.19683 11.6652 8.43538C11.6652 8.67394 11.7599 8.90273 11.9286 9.07141C12.0973 9.2401 12.3261 9.33486 12.5647 9.33486ZM13.4641 12.9328C13.4641 13.1713 13.3694 13.4001 13.2007 13.5688C13.032 13.7375 12.8032 13.8323 12.5647 13.8323C12.3261 13.8323 12.0973 13.7375 11.9286 13.5688C11.7599 13.4001 11.6652 13.1713 11.6652 12.9328C11.6652 12.6942 11.7599 12.4654 11.9286 12.2968C12.0973 12.1281 12.3261 12.0333 12.5647 12.0333C12.8032 12.0333 13.032 12.1281 13.2007 12.2968C13.3694 12.4654 13.4641 12.6942 13.4641 12.9328ZM12.5647 18.3297C12.8032 18.3297 13.032 18.2349 13.2007 18.0662C13.3694 17.8975 13.4641 17.6687 13.4641 17.4302C13.4641 17.1916 13.3694 16.9628 13.2007 16.7941C13.032 16.6255 12.8032 16.5307 12.5647 16.5307C12.3261 16.5307 12.0973 16.6255 11.9286 16.7941C11.7599 16.9628 11.6652 17.1916 11.6652 17.4302C11.6652 17.6687 11.7599 17.8975 11.9286 18.0662C12.0973 18.2349 12.3261 18.3297 12.5647 18.3297ZM17.0621 8.43538C17.0621 8.67394 16.9673 8.90273 16.7986 9.07141C16.6299 9.2401 16.4011 9.33486 16.1626 9.33486C15.924 9.33486 15.6952 9.2401 15.5265 9.07141C15.3579 8.90273 15.2631 8.67394 15.2631 8.43538C15.2631 8.19683 15.3579 7.96804 15.5265 7.79936C15.6952 7.63067 15.924 7.5359 16.1626 7.5359C16.4011 7.5359 16.6299 7.63067 16.7986 7.79936C16.9673 7.96804 17.0621 8.19683 17.0621 8.43538ZM16.1626 13.8323C16.4011 13.8323 16.6299 13.7375 16.7986 13.5688C16.9673 13.4001 17.0621 13.1713 17.0621 12.9328C17.0621 12.6942 16.9673 12.4654 16.7986 12.2968C16.6299 12.1281 16.4011 12.0333 16.1626 12.0333C15.924 12.0333 15.6952 12.1281 15.5265 12.2968C15.3579 12.4654 15.2631 12.6942 15.2631 12.9328C15.2631 13.1713 15.3579 13.4001 15.5265 13.5688C15.6952 13.7375 15.924 13.8323 16.1626 13.8323ZM17.0621 17.4302C17.0621 17.6687 16.9673 17.8975 16.7986 18.0662C16.6299 18.2349 16.4011 18.3297 16.1626 18.3297C15.924 18.3297 15.6952 18.2349 15.5265 18.0662C15.3579 17.8975 15.2631 17.6687 15.2631 17.4302C15.2631 17.1916 15.3579 16.9628 15.5265 16.7941C15.6952 16.6255 15.924 16.5307 16.1626 16.5307C16.4011 16.5307 16.6299 16.6255 16.7986 16.7941C16.9673 16.9628 17.0621 17.1916 17.0621 17.4302ZM19.7605 18.3297C19.999 18.3297 20.2278 18.2349 20.3965 18.0662C20.5652 17.8975 20.66 17.6687 20.66 17.4302C20.66 17.1916 20.5652 16.9628 20.3965 16.7941C20.2278 16.6255 19.999 16.5307 19.7605 16.5307C19.5219 16.5307 19.2931 16.6255 19.1245 16.7941C18.9558 16.9628 18.861 17.1916 18.861 17.4302C18.861 17.6687 18.9558 17.8975 19.1245 18.0662C19.2931 18.2349 19.5219 18.3297 19.7605 18.3297ZM10.7657 3.93799C10.05 3.93799 9.36367 4.22229 8.85761 4.72834C8.35156 5.2344 8.06726 5.92076 8.06726 6.63643V24.626C8.06726 24.8646 8.16203 25.0934 8.33071 25.262C8.4994 25.4307 8.72818 25.5255 8.96674 25.5255H23.3584C23.597 25.5255 23.8257 25.4307 23.9944 25.262C24.1631 25.0934 24.2579 24.8646 24.2579 24.626V15.6312C24.2579 14.9155 23.9736 14.2292 23.4675 13.7231C22.9615 13.2171 22.2751 12.9328 21.5594 12.9328H20.66V6.63643C20.66 5.92076 20.3757 5.2344 19.8696 4.72834C19.3636 4.22229 18.6772 3.93799 17.9615 3.93799H10.7657ZM9.86622 6.63643C9.86622 6.39787 9.96099 6.16908 10.1297 6.0004C10.2984 5.83171 10.5271 5.73695 10.7657 5.73695H17.9615C18.2001 5.73695 18.4289 5.83171 18.5976 6.0004C18.7662 6.16908 18.861 6.39787 18.861 6.63643V13.8323C18.861 14.0708 18.9558 14.2996 19.1245 14.4683C19.2931 14.637 19.5219 14.7317 19.7605 14.7317H21.5594C21.798 14.7317 22.0268 14.8265 22.1955 14.9952C22.3642 15.1639 22.4589 15.3927 22.4589 15.6312V23.7265H20.66V21.0281C20.66 20.7895 20.5652 20.5607 20.3965 20.3921C20.2278 20.2234 19.999 20.1286 19.7605 20.1286H12.5647C12.3261 20.1286 12.0973 20.2234 11.9286 20.3921C11.7599 20.5607 11.6652 20.7895 11.6652 21.0281V23.7265H9.86622V6.63643ZM18.861 21.9276V23.7265H17.0674V21.9276H18.861ZM15.2685 21.9276V23.7265H13.4641V21.9276H15.2685Z" fill="#BF7301"/>
</svg>
