<svg width="29" height="30" viewBox="0 0 29 30" fill="none" xmlns="http://www.w3.org/2000/svg">
<g id="ph:phone-fill">
<path id="Vector" d="M26.2347 20.3635C26.0342 21.887 25.286 23.2855 24.1298 24.2977C22.9736 25.3099 21.4885 25.8666 19.9519 25.8638C11.0245 25.8638 3.76124 18.6005 3.76124 9.6732C3.75849 8.13654 4.31519 6.65143 5.32738 5.49523C6.33957 4.33903 7.73803 3.59082 9.26156 3.39034C9.64682 3.3433 10.037 3.42212 10.3737 3.61503C10.7105 3.80794 10.9759 4.1046 11.1302 4.46072L13.5048 9.76203V9.77552C13.623 10.0481 13.6718 10.3457 13.6469 10.6418C13.622 10.9379 13.5241 11.2231 13.3621 11.4722C13.3418 11.5025 13.3205 11.5306 13.298 11.5587L10.9571 14.3336C11.7992 16.0449 13.5892 17.8191 15.3229 18.6635L18.0596 16.335C18.0865 16.3124 18.1146 16.2914 18.1439 16.272C18.3927 16.1061 18.679 16.0048 18.9768 15.9773C19.2746 15.9498 19.5746 15.997 19.8495 16.1146L19.8642 16.1213L25.161 18.4948C25.5177 18.6486 25.8151 18.9138 26.0087 19.2506C26.2022 19.5874 26.2815 19.9779 26.2347 20.3635Z" fill="white"/>
</g>
</svg>
