<svg width="97" height="97" viewBox="0 0 97 97" fill="none" xmlns="http://www.w3.org/2000/svg">
<path d="M68.052 7.78643C68.052 7.15028 68.3047 6.54018 68.7546 6.09035C69.2044 5.64053 69.8145 5.38782 70.4506 5.38782H89.6395C90.2757 5.38782 90.8858 5.64053 91.3356 6.09035C91.7854 6.54018 92.0381 7.15028 92.0381 7.78643V31.7725C92.0381 32.4087 91.7854 33.0188 91.3356 33.4686C90.8858 33.9184 90.2757 34.1712 89.6395 34.1712H82.4437V89.3392C82.4437 89.9754 82.191 90.5855 81.7411 91.0353C81.2913 91.4851 80.6812 91.7378 80.0451 91.7378C79.4089 91.7378 78.7988 91.4851 78.349 91.0353C77.8992 90.5855 77.6465 89.9754 77.6465 89.3392V34.1712H70.4506C69.8145 34.1712 69.2044 33.9184 68.7546 33.4686C68.3047 33.0188 68.052 32.4087 68.052 31.7725V7.78643ZM63.2548 14.9823H30.3459C27.5727 14.9817 24.8851 15.9422 22.7404 17.7003C20.5957 19.4584 19.1266 21.9053 18.5831 24.6247L17.6332 29.3739H14.0833C13.129 29.3739 12.2139 29.753 11.5392 30.4277C10.8644 31.1025 10.4854 32.0176 10.4854 32.9718C10.4854 33.9261 10.8644 34.8412 11.5392 35.516C12.2139 36.1907 13.129 36.5698 14.0833 36.5698H16.194L15.6616 39.2562C14.1678 39.693 12.8559 40.6024 11.9226 41.8479C10.9893 43.0934 10.485 44.6079 10.4854 46.1642V65.3531C10.4854 67.2615 11.2435 69.0918 12.593 70.4413C13.9424 71.7908 15.7727 72.5489 17.6812 72.5489H72.8492V38.9684H20.6075L23.2891 25.5649C23.6151 23.9343 24.4957 22.4668 25.7813 21.4121C27.0669 20.3574 28.6782 19.7805 30.3411 19.7795H63.2548V14.9823ZM72.8492 55.7586C72.8492 57.031 72.3438 58.2511 71.4442 59.1508C70.5445 60.0505 69.3243 60.5559 68.052 60.5559C66.7797 60.5559 65.5595 60.0505 64.6599 59.1508C63.7602 58.2511 63.2548 57.031 63.2548 55.7586C63.2548 54.4863 63.7602 53.2662 64.6599 52.3665C65.5595 51.4668 66.7797 50.9614 68.052 50.9614C69.3243 50.9614 70.5445 51.4668 71.4442 52.3665C72.3438 53.2662 72.8492 54.4863 72.8492 55.7586ZM72.8492 86.9406C71.5769 86.9406 70.3567 86.4352 69.4571 85.5355C68.5574 84.6359 68.052 83.4157 68.052 82.1434V77.3461H72.8492V86.9406ZM29.6742 82.1434V77.3461H20.0798V82.1434C20.0798 83.4157 20.5852 84.6359 21.4849 85.5355C22.3845 86.4352 23.6047 86.9406 24.877 86.9406C26.1493 86.9406 27.3695 86.4352 28.2692 85.5355C29.1688 84.6359 29.6742 83.4157 29.6742 82.1434ZM24.877 55.7586C24.877 54.4863 25.3824 53.2662 26.2821 52.3665C27.1817 51.4668 28.4019 50.9614 29.6742 50.9614C30.9465 50.9614 32.1667 51.4668 33.0664 52.3665C33.966 53.2662 34.4715 54.4863 34.4715 55.7586C34.4715 57.031 33.966 58.2511 33.0664 59.1508C32.1667 60.0505 30.9465 60.5559 29.6742 60.5559C28.4019 60.5559 27.1817 60.0505 26.2821 59.1508C25.3824 58.2511 24.877 57.031 24.877 55.7586Z" fill="white"/>
</svg>
