<svg width="97" height="97" viewBox="0 0 97 97" fill="none" xmlns="http://www.w3.org/2000/svg">
<path d="M58.1038 71.8641L63.7406 66.2273L80.7307 83.0975L74.9741 88.7743L58.1038 71.8641ZM74.7342 8.82056C78.4451 8.82056 82.004 10.2947 84.628 12.9187C87.252 15.5427 88.7261 19.1016 88.7261 22.8125C88.7261 26.5233 87.252 30.0822 84.628 32.7062C82.004 35.3302 78.4451 36.8044 74.7342 36.8044C71.0233 36.8044 67.4644 35.3302 64.8404 32.7062C62.2164 30.0822 60.7423 26.5233 60.7423 22.8125C60.7423 19.1016 62.2164 15.5427 64.8404 12.9187C67.4644 10.2947 71.0233 8.82056 74.7342 8.82056ZM9.73182 29.2487L21.0453 17.9353C21.8079 17.1857 22.8343 16.7657 23.9036 16.7657C24.9729 16.7657 25.9994 17.1857 26.762 17.9353L60.6224 51.8756C62.1815 53.4347 62.1815 55.9533 60.6224 57.5124L49.3089 68.7858C48.9401 69.1654 48.4988 69.4672 48.0113 69.6732C47.5237 69.8793 46.9998 69.9854 46.4706 69.9854C45.9413 69.9854 45.4174 69.8793 44.9298 69.6732C44.4423 69.4672 44.0011 69.1654 43.6322 68.7858L9.73182 34.9254C8.17273 33.3264 8.17273 30.8078 9.73182 29.2487Z" fill="white"/>
</svg>
