<svg width="96" height="97" viewBox="0 0 96 97" fill="none" xmlns="http://www.w3.org/2000/svg">
<path d="M43.9746 62.4487V80.7821H51.97V62.4487C51.97 60.3459 51.1145 58.2831 49.6273 56.796L41.632 48.8006L51.97 38.4626L59.9654 46.458C61.4525 47.9451 63.5153 48.8006 65.6181 48.8006H79.9538V40.8053H65.6181L50.7987 25.9858C50.4277 25.6143 49.9872 25.3195 49.5022 25.1184C49.0172 24.9172 48.4973 24.8137 47.9723 24.8137C47.4473 24.8137 46.9274 24.9172 46.4424 25.1184C45.9574 25.3195 45.5169 25.6143 45.1459 25.9858L31.9816 39.1502C30.4704 40.6614 29.6389 42.6682 29.6389 44.8029C29.6389 46.9377 30.4704 48.9445 31.9816 50.4557L43.9746 62.4487Z" fill="white"/>
<path d="M63.9629 28.8125C68.3786 28.8125 71.9583 25.2329 71.9583 20.8171C71.9583 16.4014 68.3786 12.8218 63.9629 12.8218C59.5472 12.8218 55.9675 16.4014 55.9675 20.8171C55.9675 25.2329 59.5472 28.8125 63.9629 28.8125Z" fill="white"/>
<path d="M71.9583 56.7961C63.1394 56.7961 55.9676 63.968 55.9676 72.7869C55.9676 81.6058 63.1394 88.7776 71.9583 88.7776C80.7772 88.7776 87.9491 81.6058 87.9491 72.7869C87.9491 63.968 80.7772 56.7961 71.9583 56.7961ZM71.9583 80.7823C67.5489 80.7823 63.963 77.1963 63.963 72.7869C63.963 68.3774 67.5489 64.7915 71.9583 64.7915C76.3678 64.7915 79.9537 68.3774 79.9537 72.7869C79.9537 77.1963 76.3678 80.7823 71.9583 80.7823ZM23.9861 88.7776C32.805 88.7776 39.9768 81.6058 39.9768 72.7869C39.9768 63.968 32.805 56.7961 23.9861 56.7961C15.1672 56.7961 7.99536 63.968 7.99536 72.7869C7.99536 81.6058 15.1672 88.7776 23.9861 88.7776ZM23.9861 64.7915C28.3955 64.7915 31.9815 68.3774 31.9815 72.7869C31.9815 77.1963 28.3955 80.7823 23.9861 80.7823C19.5767 80.7823 15.9907 77.1963 15.9907 72.7869C15.9907 68.3774 19.5767 64.7915 23.9861 64.7915Z" fill="white"/>
</svg>
