<svg width="30" height="30" viewBox="0 0 30 30" fill="none" xmlns="http://www.w3.org/2000/svg">
<path d="M17.6618 12.8786V11.0557C17.6618 10.2042 16.8103 9.62851 16.0188 9.94033L11.6653 11.6793V11.1037C11.6653 10.2402 10.7898 9.65249 9.99825 10.0003L4.7213 12.255C3.84581 12.6388 3.27014 13.5023 3.27014 14.4617V24.8717C3.27014 26.1909 4.34952 27.2703 5.66875 27.2703H24.8576C26.1769 27.2703 27.2563 26.1909 27.2563 24.8717V12.8786H17.6618ZM11.6653 21.2738C11.6653 21.9334 11.1256 22.4731 10.466 22.4731C9.80636 22.4731 9.26667 21.9334 9.26667 21.2738V18.8752C9.26667 18.2155 9.80636 17.6758 10.466 17.6758C11.1256 17.6758 11.6653 18.2155 11.6653 18.8752V21.2738ZM16.4625 21.2738C16.4625 21.9334 15.9228 22.4731 15.2632 22.4731C14.6036 22.4731 14.0639 21.9334 14.0639 21.2738V18.8752C14.0639 18.2155 14.6036 17.6758 15.2632 17.6758C15.9228 17.6758 16.4625 18.2155 16.4625 18.8752V21.2738ZM21.2597 21.2738C21.2597 21.9334 20.72 22.4731 20.0604 22.4731C19.4008 22.4731 18.8611 21.9334 18.8611 21.2738V18.8752C18.8611 18.2155 19.4008 17.6758 20.0604 17.6758C20.72 17.6758 21.2597 18.2155 21.2597 18.8752V21.2738ZM25.0016 3.28418H23.5264C22.9148 3.28418 22.4111 3.73992 22.3391 4.33957L21.4996 11.0797H27.0164L26.1889 4.33957C26.1169 3.73992 25.6012 3.28418 25.0016 3.28418Z" fill="#BF7301"/>
</svg>
