<svg width="96" height="97" viewBox="0 0 96 97" fill="none" xmlns="http://www.w3.org/2000/svg">
<g clip-path="url(#clip0_247_51)">
<path d="M36.3705 91.8253C36.7364 92.2219 36.9309 92.7469 36.9119 93.2862C36.8928 93.8255 36.6617 94.3355 36.2688 94.7053L31.8512 98.8362C31.4567 99.2027 30.9329 99.3976 30.3948 99.3782C29.8567 99.3587 29.3483 99.1265 28.9813 98.7325L3.25434 71.0062C2.88874 70.6093 2.69455 70.0841 2.71398 69.5448C2.7334 69.0056 2.96486 68.4957 3.35806 68.1262L7.78183 64.0014C7.97703 63.8197 8.20612 63.6782 8.45602 63.5851C8.70592 63.4919 8.97173 63.4489 9.23825 63.4586C9.50477 63.4682 9.76677 63.5303 10.0093 63.6412C10.2518 63.7521 10.4701 63.9098 10.6517 64.1051L36.3705 91.8253ZM69.1979 39.6555C69.5635 40.0524 69.7577 40.5775 69.7382 41.1168C69.7188 41.6561 69.4873 42.1659 69.0941 42.5355L41.2906 68.5085C40.8961 68.875 40.3723 69.07 39.8342 69.0505C39.2961 69.0311 38.7877 68.7988 38.4207 68.4048L31.784 61.2434C31.4184 60.8465 31.2243 60.3213 31.2437 59.7821C31.2631 59.2428 31.4946 58.733 31.8878 58.3634L59.6853 32.3903C59.8803 32.2087 60.1092 32.0672 60.359 31.9741C60.6087 31.881 60.8743 31.838 61.1407 31.8477C61.407 31.8573 61.6689 31.9194 61.9112 32.0303C62.1536 32.1412 62.3717 32.2988 62.5531 32.4941L69.1979 39.6555ZM45.8302 82.9839C46.5909 83.8036 46.5441 85.0992 45.7265 85.8639L41.3028 89.9927C41.1076 90.1745 40.8785 90.3159 40.6286 90.4091C40.3787 90.5022 40.1129 90.5452 39.8463 90.5356C39.5798 90.5259 39.3178 90.4639 39.0753 90.3529C38.8328 90.242 38.6145 90.0844 38.4329 89.889L12.7202 62.1627C12.3543 61.7661 12.1598 61.2411 12.1788 60.7018C12.1979 60.1625 12.4289 59.6526 12.8219 59.2827L17.2375 55.1559C17.632 54.7894 18.1558 54.5945 18.6939 54.6139C19.232 54.6334 19.7404 54.8656 20.1073 55.2596L45.8302 82.9839ZM88.6706 40.65C89.0359 41.0472 89.2297 41.5725 89.2099 42.1118C89.1901 42.6511 88.9583 43.1608 88.5648 43.5301L84.1431 47.6589C83.7485 48.0258 83.2245 48.2211 82.6861 48.2021C82.1477 48.183 81.6388 47.9511 81.2712 47.5572L55.5544 19.837C55.188 19.4406 54.9932 18.9155 55.0122 18.3761C55.0312 17.8366 55.2627 17.3266 55.6561 16.957L60.09 12.818C60.285 12.6363 60.514 12.4949 60.7637 12.4018C61.0134 12.3087 61.2791 12.2657 61.5454 12.2753C61.8118 12.285 62.0736 12.347 62.316 12.4579C62.5583 12.5688 62.7764 12.7264 62.9578 12.9217L88.6706 40.65ZM98.1161 31.8229C98.4813 32.2204 98.6752 32.7457 98.6558 33.2852C98.6364 33.8246 98.4052 34.3347 98.0123 34.7049L93.5987 38.8317C93.4038 39.0135 93.175 39.1551 92.9254 39.2484C92.6757 39.3417 92.4101 39.3848 92.1437 39.3754C91.8774 39.3659 91.6155 39.3041 91.3731 39.1933C91.1307 39.0826 90.9124 38.9252 90.7309 38.73L65.0182 10.9976C64.6527 10.6004 64.4584 10.0752 64.4775 9.53574C64.4965 8.9963 64.7273 8.48607 65.1199 8.11559L69.5375 3.98065C69.7321 3.79867 69.9608 3.65692 70.2103 3.56351C70.4598 3.4701 70.7253 3.42688 70.9915 3.43633C71.2578 3.44578 71.5196 3.50771 71.7618 3.61857C72.0041 3.72943 72.2221 3.88703 72.4033 4.08234L98.1161 31.8229Z" fill="white"/>
</g>
<defs>
<clipPath id="clip0_247_51">
<rect width="95.9445" height="95.9445" fill="white" transform="translate(0 0.71875)"/>
</clipPath>
</defs>
</svg>
