<svg width="97" height="97" viewBox="0 0 97 97" fill="none" xmlns="http://www.w3.org/2000/svg">
<path d="M57.1881 41.693L37.1997 27.4213C34.4013 25.4224 30.6835 25.4224 27.9251 27.4213L7.93667 41.693C5.8179 43.2121 4.57861 45.6107 4.57861 48.2092V80.0708C4.57861 82.2695 6.37757 84.0684 8.5763 84.0684H24.567V60.0823H40.5578V84.0684H56.5485C58.7472 84.0684 60.5462 82.2695 60.5462 80.0708V48.2092C60.5462 45.6107 59.3069 43.2121 57.1881 41.693Z" fill="white"/>
<path d="M84.6526 12.1099H48.4335C44.0761 12.1099 40.5581 15.6278 40.5581 19.9853L40.9179 20.3451C41.2377 20.545 41.5575 20.7049 41.8773 20.9048L61.8658 35.1765C64.904 37.3353 67.0628 40.5334 68.0222 44.0913H76.5373V52.0867H68.5419V60.0821H76.5373V68.0775H68.5419V84.0682H84.6526C89.0101 84.0682 92.528 80.5502 92.528 76.1928V19.9853C92.528 15.6278 89.0101 12.1099 84.6526 12.1099ZM76.5373 36.096H68.5419V28.1006H76.5373V36.096Z" fill="white"/>
</svg>
