<svg width="30" height="30" viewBox="0 0 30 30" fill="none" xmlns="http://www.w3.org/2000/svg">
<path d="M15.2632 14.4178C14.468 14.4178 13.7054 14.1019 13.1431 13.5396C12.5808 12.9774 12.2649 12.2147 12.2649 11.4196C12.2649 10.6244 12.5808 9.86174 13.1431 9.29946C13.7054 8.73718 14.468 8.42129 15.2632 8.42129C16.0584 8.42129 16.821 8.73718 17.3833 9.29946C17.9456 9.86174 18.2614 10.6244 18.2614 11.4196C18.2614 11.8133 18.1839 12.2032 18.0332 12.5669C17.8825 12.9307 17.6617 13.2612 17.3833 13.5396C17.1049 13.8181 16.7743 14.0389 16.4106 14.1896C16.0468 14.3403 15.6569 14.4178 15.2632 14.4178ZM15.2632 3.02441C13.0367 3.02441 10.9013 3.9089 9.32692 5.48329C7.75253 7.05769 6.86804 9.19302 6.86804 11.4196C6.86804 17.7159 15.2632 27.0105 15.2632 27.0105C15.2632 27.0105 23.6583 17.7159 23.6583 11.4196C23.6583 9.19302 22.7738 7.05769 21.1994 5.48329C19.625 3.9089 17.4897 3.02441 15.2632 3.02441Z" fill="#BF7301"/>
</svg>
