<svg width="97" height="97" viewBox="0 0 97 97" fill="none" xmlns="http://www.w3.org/2000/svg">
<path d="M18.876 48.5888C16.0777 48.5888 13.7124 47.6227 11.7802 45.6905C9.84794 43.7582 8.88184 41.393 8.88184 38.5946C8.88184 35.7962 9.84794 33.4309 11.7802 31.4987C13.7124 29.5665 16.0777 28.6004 18.876 28.6004C21.6744 28.6004 24.0397 29.5665 25.9719 31.4987C27.9042 33.4309 28.8703 35.7962 28.8703 38.5946C28.8703 41.393 27.9042 43.7582 25.9719 45.6905C24.0397 47.6227 21.6744 48.5888 18.876 48.5888ZM36.8656 32.598C34.0673 32.598 31.702 31.6319 29.7697 29.6997C27.8375 27.7675 26.8714 25.4022 26.8714 22.6038C26.8714 19.8055 27.8375 17.4402 29.7697 15.5079C31.702 13.5757 34.0673 12.6096 36.8656 12.6096C39.664 12.6096 42.0293 13.5757 43.9615 15.5079C45.8937 17.4402 46.8598 19.8055 46.8598 22.6038C46.8598 25.4022 45.8937 27.7675 43.9615 29.6997C42.0293 31.6319 39.664 32.598 36.8656 32.598ZM60.8517 32.598C58.0534 32.598 55.6881 31.6319 53.7559 29.6997C51.8236 27.7675 50.8575 25.4022 50.8575 22.6038C50.8575 19.8055 51.8236 17.4402 53.7559 15.5079C55.6881 13.5757 58.0534 12.6096 60.8517 12.6096C63.6501 12.6096 66.0154 13.5757 67.9476 15.5079C69.8798 17.4402 70.846 19.8055 70.846 22.6038C70.846 25.4022 69.8798 27.7675 67.9476 29.6997C66.0154 31.6319 63.6501 32.598 60.8517 32.598ZM78.8413 48.5888C76.0429 48.5888 73.6776 47.6227 71.7454 45.6905C69.8132 43.7582 68.8471 41.393 68.8471 38.5946C68.8471 35.7962 69.8132 33.4309 71.7454 31.4987C73.6776 29.5665 76.0429 28.6004 78.8413 28.6004C81.6397 28.6004 84.005 29.5665 85.9372 31.4987C87.8694 33.4309 88.8355 35.7962 88.8355 38.5946C88.8355 41.393 87.8694 43.7582 85.9372 45.6905C84.005 47.6227 81.6397 48.5888 78.8413 48.5888ZM27.4711 88.5656C24.4728 88.5656 21.9569 87.4156 19.9234 85.1156C17.89 82.8156 16.8745 80.1025 16.8772 76.9763C16.8772 73.5117 18.0605 70.4801 20.4272 67.8816C22.7938 65.2831 25.1418 62.7179 27.4711 60.1861C29.4033 58.1206 31.069 55.8726 32.4682 53.442C33.8674 51.0114 35.5331 48.7287 37.4653 46.5939C38.9311 44.8616 40.6301 43.4291 42.5623 42.2964C44.4945 41.1638 46.5933 40.5961 48.8587 40.5934C51.124 40.5934 53.2228 41.1264 55.155 42.1925C57.0873 43.2585 58.7863 44.6577 60.2521 46.3901C62.1177 48.5222 63.7674 50.8208 65.2012 53.2861C66.6351 55.7513 68.3168 58.05 70.2463 60.1821C72.5783 62.7139 74.9263 65.2791 77.2902 67.8776C79.6542 70.4761 80.8375 73.5077 80.8402 76.9724C80.8402 80.1039 79.8234 82.8196 77.7899 85.1196C75.7564 87.4196 73.2419 88.5683 70.2463 88.5656C66.6484 88.5656 63.0838 88.2658 59.5525 87.6662C56.0212 87.0665 52.4566 86.7667 48.8587 86.7667C45.2608 86.7667 41.6962 87.0665 38.1649 87.6662C34.6336 88.2658 31.069 88.5656 27.4711 88.5656Z" fill="white"/>
</svg>
