<svg width="30" height="30" viewBox="0 0 30 30" fill="none" xmlns="http://www.w3.org/2000/svg">
<path fill-rule="evenodd" clip-rule="evenodd" d="M4.50303 24.9143C4.46585 25.5757 5.00674 26.1136 5.66875 26.1136H14.0639C14.7265 26.1136 15.2566 25.5745 15.3298 24.9161C15.6016 22.482 16.693 20.2127 18.4248 18.4809C20.1567 16.749 22.426 15.6576 24.86 15.3858C25.5185 15.3132 26.0569 14.7825 26.0569 14.1205V5.72477C26.0569 5.06216 25.5197 4.52127 24.8582 4.55845C19.5556 4.85341 14.5478 7.09266 10.7925 10.848C7.03724 14.6033 4.79799 19.6117 4.50303 24.9143ZM23.0665 10.3049C23.5054 10.2078 23.9481 10.129 24.3935 10.0687L24.2322 8.88015C23.7538 8.94488 23.2782 9.0295 22.8068 9.1338L23.0665 10.3049ZM18.09 12.318C18.8564 11.8471 19.6607 11.441 20.4946 11.1037L20.0448 9.9919C19.1492 10.3541 18.2853 10.7904 17.4621 11.2961L18.09 12.318ZM14.943 14.8419C15.2558 14.5193 15.5819 14.2098 15.9204 13.9142L15.1319 13.0106C14.4042 13.6457 13.7307 14.3403 13.1182 15.0872L14.0459 15.8475C14.3308 15.5 14.6301 15.1645 14.943 14.8419ZM11.3774 20.5056C11.6888 19.6619 12.0699 18.8455 12.5168 18.065L11.4764 17.469C10.9963 18.3074 10.5869 19.1843 10.2525 20.0907L11.3774 20.5056ZM10.463 24.4351C10.5098 23.9866 10.5751 23.5417 10.6579 23.1015L9.47955 22.8784C9.38989 23.3527 9.31987 23.8304 9.26967 24.3104L10.463 24.4351Z" fill="#BF7301"/>
</svg>
