<svg width="87" height="107" viewBox="0 0 87 107" fill="none" xmlns="http://www.w3.org/2000/svg">
<g clip-path="url(#clip0_247_45)">
<path d="M56.652 19.9269C62.1547 19.9269 66.6155 15.4662 66.6155 9.96346C66.6155 4.46072 62.1547 0 56.652 0C51.1493 0 46.6885 4.46072 46.6885 9.96346C46.6885 15.4662 51.1493 19.9269 56.652 19.9269ZM23.7913 65.8979L20.7192 73.0633H6.83469C3.16689 73.0633 0.192383 76.0378 0.192383 79.7056C0.192383 83.3734 3.16689 86.3479 6.83469 86.3479H22.9112C26.9069 86.3479 30.5041 83.9733 32.0672 80.3097L33.8917 76.0503L31.6769 74.7426C28.0818 72.6191 25.4373 69.4765 23.7913 65.8979ZM79.9001 46.4941H70.7607L65.3513 35.4409C62.7567 30.1374 57.9929 26.2599 52.5275 24.8671L37.7733 20.4791C31.899 19.0676 25.7819 20.3649 20.9932 24.0369L12.7588 30.3491C9.84656 32.5805 9.29442 36.7486 11.53 39.6608C13.7655 42.573 17.9315 43.119 20.8417 40.8896L29.0802 34.5774C30.6723 33.3548 32.7003 32.9168 34.3255 33.3029L37.3769 34.21L29.6012 52.3497C26.9816 58.4689 29.3293 65.6364 35.0603 69.0198L52.6998 79.4337L46.9978 97.644C45.9018 101.144 47.8509 104.87 51.3506 105.966C52.0128 106.173 52.6811 106.273 53.3391 106.273C56.1642 106.273 58.7838 104.452 59.6742 101.613L66.2418 80.6355C67.4686 76.3243 65.6419 71.6933 61.75 69.3457L49.0383 61.844L55.5373 45.5953L59.7448 54.195C61.4054 57.5867 64.9175 59.7766 68.6933 59.7766H79.9001C83.5679 59.7766 86.5424 56.8021 86.5424 53.1343C86.5424 49.4665 83.5679 46.4941 79.9001 46.4941Z" fill="white"/>
</g>
<defs>
<clipPath id="clip0_247_45">
<rect width="86.35" height="106.277" fill="white" transform="translate(0.192383)"/>
</clipPath>
</defs>
</svg>
