<svg width="97" height="97" viewBox="0 0 97 97" fill="none" xmlns="http://www.w3.org/2000/svg">
<g clip-path="url(#clip0_247_49)">
<path d="M65.2545 13.1804C64.5381 13.1804 62.4721 14.1207 62.4721 14.1207L41.2236 24.8665C38.3901 25.9858 37.2707 30.5016 38.9721 32.7595L45.1765 41.7655L19.7832 54.7436L32.563 64.338L48.5666 54.7436L64.5573 64.338L70.9664 57.9289L51.7775 32.3437L68.1328 22.5574C71.5101 20.856 70.9664 18.0544 70.9664 16.353C70.9408 15.0098 68.6637 13.1804 65.2545 13.1804ZM78.949 32.3693C77.4786 32.368 76.0224 32.6564 74.6634 33.2179C73.3045 33.7795 72.0695 34.6031 71.0289 35.642C69.9883 36.6808 69.1625 37.9144 68.5986 39.2724C68.0348 40.6303 67.7439 42.0861 67.7427 43.5564C67.7414 45.0268 68.0298 46.483 68.5913 47.842C69.1528 49.2009 69.9765 50.4359 71.0153 51.4765C72.0541 52.5171 73.2877 53.3429 74.6457 53.9068C76.0037 54.4706 77.4594 54.7615 78.9298 54.7627C81.8993 54.7653 84.7483 53.5881 86.8499 51.4901C88.9515 49.3921 90.1335 46.5452 90.1361 43.5756C90.1386 40.6061 88.9614 37.7571 86.8634 35.6555C84.7654 33.5539 81.9185 32.3719 78.949 32.3693ZM16.5723 64.3508L0.581543 73.9452V83.5397L16.5723 73.9452L32.563 83.5397L48.5666 73.9452L64.5573 83.5397L77.3371 73.9452L96.526 83.5397V73.9452L77.3371 64.3508L64.5573 73.9452L48.5666 64.3508L32.563 73.9452L16.5723 64.3508Z" fill="white"/>
</g>
<defs>
<clipPath id="clip0_247_49">
<rect width="95.9445" height="95.9445" fill="white" transform="translate(0.581543 0.387695)"/>
</clipPath>
</defs>
</svg>
