<svg width="97" height="97" viewBox="0 0 97 97" fill="none" xmlns="http://www.w3.org/2000/svg">
<path d="M13.2845 7.22534C13.2845 7.22534 6.88818 7.22534 6.88818 13.6216V46.6137C6.88818 57.6793 9.15247 71.1883 29.2752 71.1883H32.4734V51.9994L16.4826 58.3957C16.4826 58.3957 16.4826 42.405 32.4734 42.405V32.8105C32.4734 28.2819 33.0298 24.3674 35.6715 21.4571C38.1085 18.7707 42.0998 13.4106 52.6601 18.4444L58.0586 21.956V13.6216C58.0586 13.6216 58.0586 7.22534 51.6623 7.22534C47.1337 7.22534 39.0104 13.6216 32.4734 13.6216C25.9364 13.6216 18.3184 7.22534 13.2845 7.22534ZM19.6808 20.0179C21.3772 20.0179 23.0041 20.6918 24.2036 21.8914C25.4032 23.0909 26.0771 24.7178 26.0771 26.4142C26.0771 28.1106 25.4032 29.7376 24.2036 30.9371C23.0041 32.1366 21.3772 32.8105 19.6808 32.8105C17.9844 32.8105 16.3574 32.1366 15.1579 30.9371C13.9584 29.7376 13.2845 28.1106 13.2845 26.4142C13.2845 24.7178 13.9584 23.0909 15.1579 21.8914C16.3574 20.6918 17.9844 20.0179 19.6808 20.0179ZM45.266 26.4142C45.266 26.4142 38.8697 26.4142 38.8697 32.8105V64.792C38.8697 77.5846 45.266 90.3772 64.4549 90.3772C83.6437 90.3772 90.04 77.5846 90.04 64.792V32.8105C90.04 26.4142 83.6437 26.4142 83.6437 26.4142C79.1152 26.4142 70.9919 32.8105 64.4549 32.8105C57.9178 32.8105 50.2998 26.4142 45.266 26.4142ZM51.6623 39.2068C53.3587 39.2068 54.9856 39.8807 56.1851 41.0803C57.3847 42.2798 58.0586 43.9067 58.0586 45.6031C58.0586 47.2995 57.3847 48.9264 56.1851 50.126C54.9856 51.3255 53.3587 51.9994 51.6623 51.9994C49.9659 51.9994 48.3389 51.3255 47.1394 50.126C45.9399 48.9264 45.266 47.2995 45.266 45.6031C45.266 43.9067 45.9399 42.2798 47.1394 41.0803C48.3389 39.8807 49.9659 39.2068 51.6623 39.2068ZM77.2474 39.2068C78.9438 39.2068 80.5708 39.8807 81.7703 41.0803C82.9698 42.2798 83.6437 43.9067 83.6437 45.6031C83.6437 47.2995 82.9698 48.9264 81.7703 50.126C80.5708 51.3255 78.9438 51.9994 77.2474 51.9994C75.551 51.9994 73.9241 51.3255 72.7246 50.126C71.525 48.9264 70.8511 47.2995 70.8511 45.6031C70.8511 43.9067 71.525 42.2798 72.7246 41.0803C73.9241 39.8807 75.551 39.2068 77.2474 39.2068ZM48.4641 64.792H80.4456C80.4456 64.792 80.4456 80.7828 64.4549 80.7828C48.4641 80.7828 48.4641 64.792 48.4641 64.792Z" fill="white"/>
</svg>
