<svg width="30" height="30" viewBox="0 0 30 30" fill="none" xmlns="http://www.w3.org/2000/svg">
<path d="M21.5596 3.68164H8.96694C8.01271 3.68164 7.09756 4.06071 6.42282 4.73545C5.74808 5.41019 5.36902 6.32533 5.36902 7.27956V21.6712C5.36902 22.6255 5.74808 23.5406 6.42282 24.2153C7.09756 24.8901 8.01271 25.2691 8.96694 25.2691H9.86641L8.24735 27.4279C8.17648 27.5224 8.12491 27.6299 8.0956 27.7443C8.06628 27.8588 8.05979 27.9779 8.0765 28.0948C8.0932 28.2117 8.13277 28.3242 8.19296 28.4259C8.25314 28.5275 8.33275 28.6163 8.42725 28.6872C8.52174 28.758 8.62928 28.8096 8.7437 28.8389C8.85813 28.8682 8.97721 28.8747 9.09414 28.858C9.21107 28.8413 9.32357 28.8017 9.42521 28.7416C9.52685 28.6814 9.61565 28.6018 9.68652 28.5073L12.1151 25.2691H18.4115L20.8401 28.5073C20.9832 28.6981 21.1963 28.8243 21.4324 28.858C21.6686 28.8918 21.9085 28.8303 22.0993 28.6872C22.2902 28.544 22.4163 28.3309 22.4501 28.0948C22.4838 27.8586 22.4224 27.6187 22.2792 27.4279L20.6602 25.2691H21.5596C22.5139 25.2691 23.429 24.8901 24.1038 24.2153C24.7785 23.5406 25.1576 22.6255 25.1576 21.6712V7.27956C25.1576 6.32533 24.7785 5.41019 24.1038 4.73545C23.429 4.06071 22.5139 3.68164 21.5596 3.68164ZM7.16798 14.4754V9.97799H14.3638V14.4754H7.16798ZM16.1628 9.97799H23.3586V14.4754H16.1628V9.97799ZM8.96694 5.4806H21.5596C22.0368 5.4806 22.4943 5.67013 22.8317 6.0075C23.1691 6.34487 23.3586 6.80244 23.3586 7.27956V8.17904H7.16798V7.27956C7.16798 6.80244 7.35751 6.34487 7.69488 6.0075C8.03225 5.67013 8.48982 5.4806 8.96694 5.4806ZM21.5596 23.4702H8.96694C8.48982 23.4702 8.03225 23.2807 7.69488 22.9433C7.35751 22.6059 7.16798 22.1483 7.16798 21.6712V16.2743H23.3586V21.6712C23.3586 22.1483 23.1691 22.6059 22.8317 22.9433C22.4943 23.2807 22.0368 23.4702 21.5596 23.4702ZM11.6654 20.322C11.6654 20.5889 11.5862 20.8497 11.438 21.0716C11.2897 21.2935 11.079 21.4664 10.8325 21.5685C10.5859 21.6706 10.3147 21.6974 10.0529 21.6453C9.79121 21.5932 9.5508 21.4647 9.36211 21.276C9.17342 21.0874 9.04492 20.8469 8.99286 20.5852C8.9408 20.3235 8.96752 20.0522 9.06964 19.8057C9.17176 19.5591 9.34469 19.3484 9.56657 19.2002C9.78845 19.0519 10.0493 18.9728 10.3162 18.9728C10.674 18.9728 11.0172 19.1149 11.2702 19.368C11.5232 19.621 11.6654 19.9642 11.6654 20.322ZM21.5596 20.322C21.5596 20.5889 21.4805 20.8497 21.3323 21.0716C21.184 21.2935 20.9733 21.4664 20.7267 21.5685C20.4802 21.6706 20.2089 21.6974 19.9472 21.6453C19.6855 21.5932 19.4451 21.4647 19.2564 21.276C19.0677 21.0874 18.9392 20.8469 18.8871 20.5852C18.8351 20.3235 18.8618 20.0522 18.9639 19.8057C19.066 19.5591 19.239 19.3484 19.4608 19.2002C19.6827 19.0519 19.9436 18.9728 20.2104 18.9728C20.5683 18.9728 20.9114 19.1149 21.1645 19.368C21.4175 19.621 21.5596 19.9642 21.5596 20.322Z" fill="#BF7301"/>
</svg>
