<svg width="39" height="40" viewBox="0 0 39 40" fill="none" xmlns="http://www.w3.org/2000/svg">
<g id="3225179_app_logo_media_popular_social_icon 2" clip-path="url(#clip0_11_70)">
<g id="Group">
<path id="Vector" d="M19.7958 39.318C9.19972 39.318 0.606934 30.7252 0.606934 20.1291C0.606934 9.53297 9.19972 0.940186 19.7958 0.940186C30.3919 0.940186 38.9847 9.53297 38.9847 20.1291C38.9847 30.7252 30.3919 39.318 19.7958 39.318Z" fill="#25D366"/>
<g id="Group_2">
<g id="WA_Logo">
<g id="Group_3">
<path id="Vector_2" fill-rule="evenodd" clip-rule="evenodd" d="M28.7724 11.1947C26.393 8.81148 23.223 7.49895 19.8496 7.49512C12.8994 7.49512 7.23863 13.152 7.23863 20.1061C7.23863 22.3281 7.81813 24.5003 8.92341 26.4115L7.13501 32.9473L13.8204 31.1934C15.6626 32.1989 17.735 32.7285 19.8457 32.7285H19.8496C26.7998 32.7285 32.4567 27.0716 32.4605 20.1176C32.4643 16.748 31.1557 13.578 28.7724 11.1947ZM19.8534 30.5985H19.8496C17.9691 30.5985 16.1231 30.092 14.5151 29.1363L14.1313 28.9099L10.163 29.95L11.2222 26.0815L10.9728 25.6862C9.92507 24.0168 9.3686 22.0902 9.3686 20.1061C9.37243 14.3264 14.0737 9.62508 19.8572 9.62508C22.6588 9.62508 25.2877 10.7189 27.268 12.6991C29.2483 14.6794 30.3382 17.316 30.3344 20.1137C30.3344 25.8973 25.6293 30.5985 19.8534 30.5985ZM25.6024 22.7464C25.2877 22.5891 23.7372 21.8254 23.4494 21.7218C23.1616 21.6181 22.9505 21.5644 22.7394 21.8791C22.5283 22.1938 21.9258 22.9038 21.7416 23.1149C21.5574 23.3259 21.3732 23.3528 21.0585 23.1955C20.7438 23.0381 19.7268 22.7042 18.5255 21.6297C17.5891 20.793 16.9559 19.7607 16.7717 19.446C16.5875 19.1313 16.7525 18.9586 16.9098 18.8012C17.0518 18.6592 17.2245 18.4328 17.3819 18.2486C17.5392 18.0644 17.593 17.9339 17.6966 17.7228C17.8002 17.5117 17.7503 17.3275 17.6697 17.1702C17.5891 17.0128 16.9597 15.4623 16.6988 14.8291C16.4416 14.2151 16.1845 14.2995 15.9888 14.288C15.8045 14.2803 15.5935 14.2765 15.3862 14.2765C15.1752 14.2765 14.8336 14.3571 14.5458 14.6718C14.2579 14.9865 13.4443 15.7502 13.4443 17.3006C13.4443 18.8511 14.5726 20.3517 14.73 20.5589C14.8873 20.77 16.952 23.9515 20.1144 25.3178C20.8666 25.644 21.4538 25.8359 21.9105 25.9817C22.6665 26.2235 23.3535 26.1889 23.8946 26.1083C24.501 26.0162 25.7597 25.3446 26.0207 24.6116C26.2817 23.8748 26.2817 23.2454 26.2049 23.1149C26.1282 22.9844 25.9171 22.9076 25.6024 22.7464Z" fill="white"/>
</g>
</g>
</g>
</g>
</g>
<defs>
<clipPath id="clip0_11_70">
<rect width="38.3778" height="38.3778" fill="white" transform="translate(0.606934 0.940186)"/>
</clipPath>
</defs>
</svg>
